<svg width="53" height="37" viewBox="0 0 53 37" fill="none" xmlns="http://www.w3.org/2000/svg">
<path d="M1.94844 23.9885C1.60366 23.9885 1.273 24.1255 1.0292 24.3693C0.785402 24.6131 0.648438 24.9437 0.648438 25.2885C0.648438 25.6333 0.785402 25.964 1.0292 26.2078C1.273 26.4516 1.60366 26.5885 1.94844 26.5885H5.84844C5.84844 29.3468 6.94415 31.9921 8.89453 33.9424C10.8449 35.8928 13.4902 36.9885 16.2484 36.9885H37.0484C39.8067 36.9885 42.452 35.8928 44.4023 33.9424C46.3527 31.9921 47.4484 29.3468 47.4484 26.5885H51.3484C51.6932 26.5885 52.0239 26.4516 52.2677 26.2078C52.5115 25.964 52.6484 25.6333 52.6484 25.2885C52.6484 24.9437 52.5115 24.6131 52.2677 24.3693C52.0239 24.1255 51.6932 23.9885 51.3484 23.9885H1.94844Z" fill="#1E75B6"/>
<path fill-rule="evenodd" clip-rule="evenodd" d="M25.4845 0.657349L26.648 1.23845L27.8115 1.81955L27.8089 1.82345L27.7933 1.85595L27.7283 1.99895C27.381 2.77456 27.1194 3.58581 26.9483 4.41825C26.6415 5.95095 26.7546 7.30685 27.5671 8.11935C29.3546 9.90685 29.2415 12.4509 28.8983 14.1682C28.6745 15.2621 28.3228 16.3259 27.8505 17.3376L27.8245 17.3935L27.8154 17.4104L27.8128 17.4169L27.8115 17.4182L26.648 16.8384L25.4845 16.2573L25.4871 16.2534L25.5027 16.2209L25.5677 16.0779C25.9151 15.3023 26.1767 14.4911 26.3477 13.6586C26.6545 12.1259 26.5414 10.77 25.7289 9.95755C23.9414 8.17005 24.0545 5.62595 24.3977 3.90865C24.6216 2.81478 24.9733 1.75101 25.4455 0.739248L25.4715 0.683348L25.4806 0.666449L25.4832 0.661248L25.4845 0.658648V0.657349ZM15.169 3.76175L16.248 4.48975C17.3257 5.21645 17.327 5.21515 17.327 5.21515V5.21385V5.21515L17.3101 5.24115C17.196 5.4231 17.0894 5.60958 16.9903 5.80015C16.7446 6.26667 16.5485 6.75774 16.4053 7.26525C16.0933 8.42485 16.2051 9.34005 17.0215 9.94325C19.1301 11.5058 19.0183 13.8419 18.5997 15.3902C18.4084 16.0783 18.1448 16.7441 17.8132 17.3766C17.6683 17.6553 17.5108 17.9273 17.3413 18.1917L17.3309 18.2073L17.3283 18.2125L17.327 18.2138C17.327 18.2138 17.3257 18.2164 16.248 17.4884C15.1703 16.7604 15.169 16.7617 15.169 16.7617L15.1859 16.737L15.2561 16.6252C15.3436 16.4786 15.4269 16.3295 15.5057 16.178C15.7072 15.7906 15.9386 15.2706 16.0907 14.7116C16.4027 13.552 16.2909 12.6381 15.4745 12.0336C13.3659 10.471 13.4777 8.13625 13.8963 6.58665C14.1108 5.79105 14.428 5.09165 14.6828 4.60025C14.8279 4.32209 14.9854 4.05056 15.1547 3.78645L15.1638 3.77085L15.1677 3.76435L15.1703 3.76175H15.169ZM37.269 3.76175L38.348 4.48975C39.4257 5.21645 39.427 5.21515 39.427 5.21515V5.21385V5.21515L39.4101 5.24115C39.296 5.4231 39.1894 5.60958 39.0903 5.80015C38.8446 6.26667 38.6485 6.75774 38.5053 7.26525C38.1933 8.42485 38.3051 9.34005 39.1215 9.94325C41.2301 11.5058 41.1183 13.8419 40.6997 15.3902C40.5084 16.0783 40.2448 16.7441 39.9132 17.3766C39.7687 17.6553 39.6117 17.9273 39.4426 18.1917L39.4322 18.2073L39.4283 18.2125L39.427 18.2138C39.427 18.2138 39.4257 18.2164 38.348 17.4884C37.2703 16.7604 37.269 16.7617 37.269 16.7617L37.2859 16.737L37.3561 16.6252C37.4436 16.4786 37.5269 16.3295 37.6057 16.178C37.8072 15.7906 38.0386 15.2706 38.1907 14.7116C38.5027 13.552 38.3909 12.6381 37.5745 12.0336C35.4659 10.471 35.5777 8.13625 35.9963 6.58665C36.2108 5.79105 36.528 5.09165 36.7828 4.60025C36.9275 4.32212 37.0845 4.05058 37.2534 3.78645L37.2638 3.77085L37.2677 3.76435L37.2703 3.76175H37.269Z" fill="#1E75B6"/>
</svg>
