<svg width="34" height="34" viewBox="0 0 34 34" fill="none" xmlns="http://www.w3.org/2000/svg">
<path d="M9.50642 5.72314C8.88809 5.72314 8.47587 6.34189 8.47587 6.75439V11.9106H6.41476V6.75439C6.41476 6.13564 6.00254 5.72314 5.38421 5.72314C4.76588 5.72314 4.35366 6.34189 4.35366 6.75439V11.9106H2.29255V6.75439C2.29255 6.13564 1.88033 5.72314 1.262 5.72314C0.643666 5.72314 0.231445 6.34189 0.231445 6.75439V13.5606C0.231445 15.4169 1.67422 16.8606 3.3231 17.0669V31.5044C3.3231 32.7419 4.14755 33.5669 5.38421 33.5669C6.62087 33.5669 7.44531 32.7419 7.44531 31.5044V17.0669C9.0942 16.8606 10.537 15.4169 10.537 13.5606V6.75439C10.537 6.34189 10.1248 5.72314 9.50642 5.72314ZM13.6286 6.75439V19.1294H15.6897V31.5044C15.6897 32.7419 16.5142 33.5669 17.7508 33.5669C18.9875 33.5669 19.8119 32.7419 19.8119 31.5044V0.566895C16.3081 0.566895 13.6286 3.24814 13.6286 6.75439ZM28.0564 4.69189C25.1708 4.69189 22.9036 7.78565 22.9036 11.4981C22.6975 13.9731 23.9342 16.2419 25.9953 17.6856V31.5044C25.9953 32.7419 26.8197 33.5669 28.0564 33.5669C29.293 33.5669 30.1175 32.7419 30.1175 31.5044V17.6856C32.1786 16.2419 33.4152 13.9731 33.2091 11.4981C33.2091 7.78565 30.9419 4.69189 28.0564 4.69189Z" fill="#1E75B6"/>
</svg>
