<svg width="11" height="11" viewBox="0 0 11 11" fill="none" xmlns="http://www.w3.org/2000/svg">
<path d="M9.26189 10.4872L10.6823 9.06552C10.783 8.96523 10.8629 8.84603 10.9175 8.71476C10.972 8.58349 11 8.44275 11 8.3006C11 8.01092 10.8865 7.7386 10.6823 7.53435L9.15243 6.00452C9.05214 5.90379 8.93293 5.82387 8.80166 5.76935C8.67039 5.71482 8.52964 5.68677 8.3875 5.68681C8.09782 5.68681 7.82549 5.80028 7.62124 6.00452L6.50255 7.12319C5.92537 6.86134 5.4003 6.49728 4.95267 6.04857C4.50287 5.601 4.13748 5.07598 3.87403 4.49872L4.99272 3.38005C5.09345 3.27976 5.17337 3.16056 5.2279 3.02929C5.28242 2.89802 5.31047 2.75727 5.31044 2.61513C5.31044 2.32545 5.19697 2.05313 4.99272 1.84888L3.4642 0.317714C3.36372 0.216862 3.2443 0.136871 3.11279 0.0823452C2.98129 0.0278194 2.8403 -0.000165423 2.69794 7.35596e-07C2.40825 7.35596e-07 2.13592 0.11347 1.93167 0.317714L0.512622 1.73675C0.185559 2.06247 8.9407e-08 2.51234 8.9407e-08 2.97423C8.9407e-08 3.07168 0.00800963 3.16512 0.0240291 3.25723C0.320388 5.05672 1.27755 6.84152 2.71663 8.28192C4.15437 9.72097 5.93786 10.6768 7.74272 10.9771C8.29405 11.0679 8.86141 10.885 9.26189 10.4872V10.4872Z" fill="#1E75B6"/>
</svg>
