<svg width="8" height="11" viewBox="0 0 8 11" fill="none" xmlns="http://www.w3.org/2000/svg">
<path d="M6.5 0.5H1.5C1.23478 0.5 0.98043 0.605357 0.792893 0.792893C0.605357 0.98043 0.5 1.23478 0.5 1.5V10C0.5 10.1326 0.552679 10.2598 0.646447 10.3536C0.740215 10.4473 0.867392 10.5 1 10.5H7C7.13261 10.5 7.25979 10.4473 7.35355 10.3536C7.44732 10.2598 7.5 10.1326 7.5 10V1.5C7.5 1.23478 7.39464 0.98043 7.20711 0.792893C7.01957 0.605357 6.76522 0.5 6.5 0.5ZM3.5 7.5H2V6.5H3.5V7.5ZM3.5 5.5H2V4.5H3.5V5.5ZM3.5 3.5H2V2.5H3.5V3.5ZM6 7.5H4.5V6.5H6V7.5ZM6 5.5H4.5V4.5H6V5.5ZM6 3.5H4.5V2.5H6V3.5Z" fill="#1E75B6"/>
</svg>
