<svg width="31" height="34" viewBox="0 0 31 34" fill="none" xmlns="http://www.w3.org/2000/svg">
<path d="M30.7412 14.0113C30.7412 13.6872 30.6095 13.3763 30.3751 13.1471C30.1407 12.9179 29.8227 12.7891 29.4912 12.7891H1.99121C1.65969 12.7891 1.34175 12.9179 1.10733 13.1471C0.872907 13.3763 0.741211 13.6872 0.741211 14.0113C0.7421 16.7265 1.51382 19.3882 2.97043 21.6999C4.42704 24.0116 6.51134 25.8825 8.99121 27.1044L8.45996 30.771C8.40576 31.1181 8.42914 31.4725 8.52848 31.8098C8.62782 32.1472 8.80076 32.4595 9.0354 32.7252C9.27004 32.9909 9.5608 33.2038 9.88765 33.3491C10.2145 33.4944 10.5697 33.5687 10.9287 33.5669H20.5537C20.9128 33.5687 21.2679 33.4944 21.5948 33.3491C21.9216 33.2038 22.2124 32.9909 22.447 32.7252C22.6817 32.4595 22.8546 32.1472 22.9539 31.8098C23.0533 31.4725 23.0767 31.1181 23.0225 30.771L22.4912 27.1044C24.9711 25.8825 27.0554 24.0116 28.512 21.6999C29.9686 19.3882 30.7403 16.7265 30.7412 14.0113ZM10.9287 31.1224L11.3818 28.0516C14.2254 28.8866 17.2571 28.8866 20.1006 28.0516L20.5537 31.1224H10.9287ZM5.11621 10.3447H26.3662C26.532 10.3447 26.6909 10.2803 26.8082 10.1657C26.9254 10.0511 26.9912 9.89563 26.9912 9.73355V3.01134C26.9912 2.36303 26.7278 1.74128 26.259 1.28285C25.7901 0.824433 25.1543 0.566895 24.4912 0.566895H6.99121C6.32817 0.566895 5.69228 0.824433 5.22344 1.28285C4.7546 1.74128 4.49121 2.36303 4.49121 3.01134V9.73355C4.49121 9.89563 4.55706 10.0511 4.67427 10.1657C4.79148 10.2803 4.95045 10.3447 5.11621 10.3447ZM9.49121 4.23356H11.9912C12.3227 4.23356 12.6407 4.36233 12.8751 4.59154C13.1095 4.82075 13.2412 5.13163 13.2412 5.45578C13.2412 5.77993 13.1095 6.09081 12.8751 6.32002C12.6407 6.54923 12.3227 6.678 11.9912 6.678H9.49121C9.15969 6.678 8.84175 6.54923 8.60733 6.32002C8.37291 6.09081 8.24121 5.77993 8.24121 5.45578C8.24121 5.13163 8.37291 4.82075 8.60733 4.59154C8.84175 4.36233 9.15969 4.23356 9.49121 4.23356Z" fill="#1E75B6"/>
</svg>
