<svg width="9" height="11" viewBox="0 0 9 11" fill="none" xmlns="http://www.w3.org/2000/svg">
<path d="M1.5 0C0.672656 0 0 0.616602 0 1.375V9.625C0 10.3834 0.672656 11 1.5 11H7.5C8.32734 11 9 10.3834 9 9.625V3.4375H6C5.58516 3.4375 5.25 3.13027 5.25 2.75V0H1.5ZM6 0V2.75H9L6 0ZM3.58594 6.20898L2.85938 6.875L3.58594 7.54102C3.80625 7.74297 3.80625 8.06953 3.58594 8.26934C3.36563 8.46914 3.00937 8.47129 2.79141 8.26934L1.66406 7.24023C1.44375 7.03828 1.44375 6.71172 1.66406 6.51191L2.78906 5.48066C3.00937 5.27871 3.36562 5.27871 3.58359 5.48066C3.80156 5.68262 3.80391 6.00918 3.58359 6.20898H3.58594ZM6.21094 5.47852L7.33594 6.50977C7.55625 6.71172 7.55625 7.03828 7.33594 7.23809L6.21094 8.26934C5.99063 8.47129 5.63438 8.47129 5.41641 8.26934C5.19844 8.06738 5.19609 7.74082 5.41641 7.54102L6.14297 6.875L5.41641 6.20898C5.19609 6.00703 5.19609 5.68047 5.41641 5.48066C5.63672 5.28086 5.99297 5.27871 6.21094 5.48066V5.47852Z" fill="#1E75B6"/>
</svg>
