<svg width="12" height="9" viewBox="0 0 12 9" fill="none" xmlns="http://www.w3.org/2000/svg">
<path d="M1.66878 5.10675V6.55624C1.66878 6.9328 1.89836 7.28356 2.26569 7.46411L5.13548 8.87233C5.47985 9.04256 5.8931 9.04256 6.23747 8.87233L9.10726 7.46411C9.47459 7.28356 9.70417 6.9328 9.70417 6.55624V5.10675L6.23747 6.809C5.8931 6.97922 5.47985 6.97922 5.13548 6.809L1.66878 5.10675ZM5.13548 0.1238L0.297023 2.49663C-0.0990075 2.69265 -0.0990075 3.20848 0.297023 3.4045L5.13548 5.77733C5.47985 5.94756 5.8931 5.94756 6.23747 5.77733L10.8521 3.51282V6.5614C10.8521 6.84511 11.1104 7.07723 11.426 7.07723C11.7417 7.07723 12 6.84511 12 6.5614V3.25491C12 3.06405 11.8852 2.89382 11.7015 2.80097L6.23747 0.1238C6.0679 0.0425175 5.87866 0 5.68648 0C5.49429 0 5.30506 0.0425175 5.13548 0.1238V0.1238Z" fill="#1E75B6"/>
</svg>
