<svg width="45" height="49" viewBox="0 0 45 49" fill="none" xmlns="http://www.w3.org/2000/svg">
<path d="M12.0744 48.3226C13.3577 48.3226 14.4077 47.2726 14.4077 45.9893V35.4893H16.741C19.3077 35.4893 21.4077 33.3893 21.4077 30.8226V13.3226C22.691 13.3226 23.741 12.2726 23.741 10.9893C23.741 9.70592 22.691 8.65592 21.4077 8.65592H14.4077V5.15592H15.5744C16.8577 5.15592 17.9077 4.10592 17.9077 2.82259C17.9077 1.53926 16.8577 0.489258 15.5744 0.489258H8.57438C7.29105 0.489258 6.24105 1.53926 6.24105 2.82259C6.24105 4.10592 7.29105 5.15592 8.57438 5.15592H9.74105V8.65592H2.74105C1.45771 8.65592 0.407715 9.70592 0.407715 10.9893C0.407715 12.2726 1.45771 13.3226 2.74105 13.3226V30.8226C2.74105 33.3893 4.84105 35.4893 7.40771 35.4893H9.74105V45.9893C9.74105 47.2726 10.791 48.3226 12.0744 48.3226ZM16.741 16.8226H12.6577C11.701 16.8226 10.9077 17.6159 10.9077 18.5726C10.9077 19.5293 11.701 20.3226 12.6577 20.3226H16.741V23.8226H12.6577C11.701 23.8226 10.9077 24.6159 10.9077 25.5726C10.9077 26.5293 11.701 27.3226 12.6577 27.3226H16.741V30.8226H7.40771V13.3226H16.741V16.8226ZM41.241 20.3226V19.1559C42.5244 19.1559 43.5744 18.1059 43.5744 16.8226C43.5744 15.5393 42.5244 14.4893 41.241 14.4893H29.5744C28.291 14.4893 27.241 15.5393 27.241 16.8226C27.241 18.1059 28.291 19.1559 29.5744 19.1559V20.3226C29.5744 21.4893 26.0744 23.0293 26.0744 27.3226V42.4893C26.0744 45.0559 28.1744 47.1559 30.741 47.1559H40.0744C42.641 47.1559 44.741 45.0559 44.741 42.4893V27.3226C44.741 23.0293 41.241 21.4893 41.241 20.3226ZM34.241 20.3226V19.1559H36.5744V20.3226C36.5744 24.0559 40.0744 24.9893 40.0744 27.3226V28.4893H30.741V27.3226C30.741 24.9893 34.241 24.0559 34.241 20.3226ZM30.741 42.4893V38.9893H40.0744V42.4893H30.741Z" fill="white"/>
</svg>
