<svg width="10" height="8" viewBox="0 0 10 8" fill="none" xmlns="http://www.w3.org/2000/svg">
<path d="M10 2.304V6.375C10 6.79007 9.84122 7.18941 9.55616 7.49112C9.2711 7.79282 8.8814 7.974 8.467 7.9975L8.375 8H1.625C1.20993 8.00003 0.810586 7.84122 0.508885 7.55616C0.207183 7.2711 0.0259993 6.8814 0.00250006 6.467L0 6.375V2.304L4.826 4.832C4.87969 4.86012 4.93939 4.87481 5 4.87481C5.06061 4.87481 5.12031 4.86012 5.174 4.832L10 2.304ZM1.625 1.18025e-08H8.375C8.77779 -4.85073e-05 9.16624 0.149498 9.46502 0.419634C9.7638 0.689769 9.9516 1.06124 9.992 1.462L5 4.077L0.00800002 1.462C0.0467617 1.07716 0.221525 0.718759 0.500875 0.451231C0.780225 0.183704 1.14584 0.0245935 1.532 0.00250007L1.625 1.18025e-08H8.375H1.625Z" fill="#1E75B6"/>
</svg>
