<svg width="9" height="11" viewBox="0 0 9 11" fill="none" xmlns="http://www.w3.org/2000/svg">
<path d="M4.49999 11C3.68802 10.3417 2.9354 9.62008 2.24999 8.84259C1.22143 7.67498 5.65002e-07 5.9361 5.65002e-07 4.27909C-0.000445511 3.43284 0.263255 2.60549 0.75773 1.90173C1.2522 1.19798 1.95523 0.649465 2.77782 0.325602C3.60042 0.00173932 4.50561 -0.0829115 5.37885 0.0823627C6.25208 0.247637 7.0541 0.655407 7.68341 1.25407C8.10239 1.65051 8.43449 2.122 8.66048 2.64125C8.88647 3.16049 9.00186 3.71718 8.99998 4.27909C8.99998 5.9361 7.77855 7.67498 6.74998 8.84259C6.06457 9.62008 5.31195 10.3417 4.49999 11ZM4.49999 2.44611C3.9885 2.44611 3.49796 2.63923 3.13629 2.98298C2.77461 3.32673 2.57142 3.79295 2.57142 4.27909C2.57142 4.76522 2.77461 5.23145 3.13629 5.5752C3.49796 5.91895 3.9885 6.11206 4.49999 6.11206C5.01148 6.11206 5.50202 5.91895 5.86369 5.5752C6.22537 5.23145 6.42856 4.76522 6.42856 4.27909C6.42856 3.79295 6.22537 3.32673 5.86369 2.98298C5.50202 2.63923 5.01148 2.44611 4.49999 2.44611Z" fill="#1E75B6"/>
</svg>
